<svg xmlns="http://www.w3.org/2000/svg" viewBox="0 0 540 400" font-family="system-ui, -apple-system, sans-serif" font-size="12">

  <!-- Background -->
  <rect width="540" height="400" fill="#f8f9fc" rx="12"/>

  <!-- ====== Panel 1: After ingest #1 ====== -->
  <rect x="16" y="16" width="508" height="170" fill="none" stroke="#c0c4d8" stroke-width="1" stroke-dasharray="4,4" rx="10"/>
  <text x="32" y="38" fill="#5a5a7a" font-size="11" font-weight="600" letter-spacing="1">AFTER INGEST #1</text>
  <text x="180" y="38" fill="#8a8aaa" font-size="10" font-style="italic">1 source · 3 concepts · 5 cross-references</text>

  <!-- Source node -->
  <rect x="200" y="56" width="140" height="28" fill="#f0f2f8" stroke="#c0c4d8" stroke-width="1" rx="6"/>
  <text x="270" y="74" text-anchor="middle" fill="#3a3a5a" font-size="11" font-weight="600">espresso-wikipedia</text>

  <!-- Citation edges (dotted, source to concepts) -->
  <line x1="230" y1="86" x2="120" y2="142" stroke="#a0a8c0" stroke-width="1" stroke-dasharray="2,3"/>
  <line x1="270" y1="86" x2="270" y2="142" stroke="#a0a8c0" stroke-width="1" stroke-dasharray="2,3"/>
  <line x1="310" y1="86" x2="420" y2="142" stroke="#a0a8c0" stroke-width="1" stroke-dasharray="2,3"/>

  <!-- Concept nodes -->
  <rect x="70" y="142" width="100" height="28" fill="#dce8ff" stroke="#4080d0" stroke-width="1" rx="6"/>
  <text x="120" y="160" text-anchor="middle" fill="#1a3a6a" font-size="11" font-weight="600">espresso</text>

  <rect x="220" y="142" width="100" height="28" fill="#dce8ff" stroke="#4080d0" stroke-width="1" rx="6"/>
  <text x="270" y="160" text-anchor="middle" fill="#1a3a6a" font-size="11" font-weight="600">crema</text>

  <rect x="370" y="142" width="100" height="28" fill="#dce8ff" stroke="#4080d0" stroke-width="1" rx="6"/>
  <text x="420" y="160" text-anchor="middle" fill="#1a3a6a" font-size="11" font-weight="600">extraction</text>

  <!-- Lateral cross-reference edges (solid) -->
  <line x1="170" y1="156" x2="220" y2="156" stroke="#4080d0" stroke-width="1.5"/>
  <line x1="320" y1="156" x2="370" y2="156" stroke="#4080d0" stroke-width="1.5"/>

  <!-- Legend for panel 1 -->
  <line x1="32" y1="178" x2="50" y2="178" stroke="#a0a8c0" stroke-width="1" stroke-dasharray="2,3"/>
  <text x="56" y="181" fill="#8a8aaa" font-size="9">citation</text>
  <line x1="120" y1="178" x2="138" y2="178" stroke="#4080d0" stroke-width="1.5"/>
  <text x="144" y="181" fill="#8a8aaa" font-size="9">cross-reference</text>

  <!-- ====== Panel 2: After ingest #2 ====== -->
  <rect x="16" y="206" width="508" height="180" fill="none" stroke="#c0c4d8" stroke-width="1" stroke-dasharray="4,4" rx="10"/>
  <text x="32" y="228" fill="#5a5a7a" font-size="11" font-weight="600" letter-spacing="1">AFTER INGEST #2</text>
  <text x="180" y="228" fill="#8a8aaa" font-size="10" font-style="italic">2 sources · 4 concepts · new edges added</text>

  <!-- Source nodes -->
  <rect x="60" y="246" width="160" height="28" fill="#f0f2f8" stroke="#c0c4d8" stroke-width="1" rx="6"/>
  <text x="140" y="264" text-anchor="middle" fill="#3a3a5a" font-size="11" font-weight="600">espresso-wikipedia</text>

  <rect x="300" y="246" width="200" height="28" fill="#ede8ff" stroke="#7060c0" stroke-width="1.5" rx="6"/>
  <text x="400" y="264" text-anchor="middle" fill="#3a1a6a" font-size="11" font-weight="700">espresso-machine-wikipedia</text>
  <text x="510" y="262" text-anchor="end" fill="#7060c0" font-size="9" font-style="italic">new</text>

  <!-- Existing citation edges (gray, dotted) -->
  <line x1="100" y1="276" x2="60" y2="328" stroke="#a0a8c0" stroke-width="1" stroke-dasharray="2,3"/>
  <line x1="140" y1="276" x2="160" y2="328" stroke="#a0a8c0" stroke-width="1" stroke-dasharray="2,3"/>
  <line x1="180" y1="276" x2="260" y2="328" stroke="#a0a8c0" stroke-width="1" stroke-dasharray="2,3"/>

  <!-- New citation edges (purple, dotted, thicker) -->
  <line x1="350" y1="276" x2="160" y2="328" stroke="#7060c0" stroke-width="1.5" stroke-dasharray="2,3"/>
  <line x1="400" y1="276" x2="260" y2="328" stroke="#7060c0" stroke-width="1.5" stroke-dasharray="2,3"/>
  <line x1="450" y1="276" x2="410" y2="328" stroke="#7060c0" stroke-width="1.5" stroke-dasharray="2,3"/>

  <!-- Concept nodes -->
  <rect x="20" y="328" width="80" height="28" fill="#dce8ff" stroke="#4080d0" stroke-width="1" rx="6"/>
  <text x="60" y="346" text-anchor="middle" fill="#1a3a6a" font-size="11" font-weight="600">espresso</text>

  <rect x="120" y="328" width="80" height="28" fill="#dce8ff" stroke="#4080d0" stroke-width="1" rx="6"/>
  <text x="160" y="346" text-anchor="middle" fill="#1a3a6a" font-size="11" font-weight="600">crema</text>

  <rect x="220" y="328" width="80" height="28" fill="#dce8ff" stroke="#4080d0" stroke-width="1" rx="6"/>
  <text x="260" y="346" text-anchor="middle" fill="#1a3a6a" font-size="11" font-weight="600">extraction</text>

  <rect x="340" y="328" width="140" height="28" fill="#ede8ff" stroke="#7060c0" stroke-width="1.5" rx="6"/>
  <text x="410" y="346" text-anchor="middle" fill="#3a1a6a" font-size="11" font-weight="700">espresso-machine</text>

  <!-- Existing lateral edges -->
  <line x1="100" y1="342" x2="120" y2="342" stroke="#4080d0" stroke-width="1.5"/>
  <line x1="200" y1="342" x2="220" y2="342" stroke="#4080d0" stroke-width="1.5"/>

  <!-- New lateral edges from espresso-machine (purple curves to existing concepts) -->
  <path d="M 340 350 Q 290 378 200 356" fill="none" stroke="#7060c0" stroke-width="1.5"/>
  <path d="M 340 354 Q 350 378 300 356" fill="none" stroke="#7060c0" stroke-width="1.5"/>

  <!-- Footer caption -->
  <text x="270" y="394" text-anchor="middle" fill="#a0a0c0" font-size="9" letter-spacing="2" font-weight="600">WIKI GROWTH ACROSS TWO INGESTS · NEW EDGES IN PURPLE</text>

</svg>
