<svg xmlns="http://www.w3.org/2000/svg" viewBox="0 0 460 260" font-family="system-ui, -apple-system, sans-serif" font-size="13">
  <style>
    text.label { fill: #8888aa; font-size: 10px; font-style: italic; }
    text.title { fill: #e0e0e0; font-size: 11px; font-weight: 600; }
    text.detail { fill: #8888aa; font-size: 10px; }
    text.step-label { fill: #8ab4f8; font-size: 9px; font-weight: 500; }
    path.surface { fill: none; stroke: #4a4a6e; stroke-width: 1.5; }
    circle.point { fill: #5390d9; }
    circle.point-start { fill: #7c3aed; }
    circle.point-end { fill: #22c55e; }
    line.step { stroke: #5390d9; stroke-width: 1; stroke-dasharray: 2,2; }
    line.grad { stroke: #ef4444; stroke-width: 1.5; }
    line.axis { stroke: #4a4a6e; stroke-width: 1; }
    text.axis-label { fill: #8888aa; font-size: 10px; }
  </style>

  <!-- Background -->
  <rect width="460" height="260" fill="#111122" rx="12"/>

  <!-- Axes -->
  <line class="axis" x1="40" y1="210" x2="420" y2="210"/>
  <line class="axis" x1="40" y1="210" x2="40" y2="20"/>
  <text class="axis-label" x="230" y="235" text-anchor="middle">parameter values</text>
  <text class="axis-label" x="18" y="115" text-anchor="middle" transform="rotate(-90, 18, 115)">loss</text>

  <!-- Loss surface curve -->
  <path class="surface" d="M 50,60 Q 80,55 100,70 Q 130,100 150,130 Q 160,145 170,120 Q 185,75 210,50 Q 230,38 250,42 Q 270,50 285,80 Q 295,100 305,90 Q 320,65 340,55 Q 360,48 380,52 Q 400,60 410,70"/>

  <!-- Gradient arrow at step 1 position (steep) -->
  <circle class="point-start" cx="100" cy="70" r="5"/>
  <text class="step-label" x="100" y="60" text-anchor="middle">start</text>
  <line class="grad" x1="100" y1="78" x2="120" y2="105"/>
  <text class="detail" x="136" y="96">steep gradient</text>
  <text class="detail" x="136" y="108">→ big step</text>

  <!-- Step path -->
  <line class="step" x1="100" y1="70" x2="150" y2="130"/>
  <circle class="point" cx="150" cy="130" r="3"/>
  <line class="step" x1="150" y1="130" x2="185" y2="75"/>
  <circle class="point" cx="185" cy="75" r="3"/>
  <line class="step" x1="185" y1="75" x2="220" y2="45"/>
  <circle class="point" cx="220" cy="45" r="3"/>
  <line class="step" x1="220" y1="45" x2="260" y2="46"/>
  <circle class="point" cx="260" cy="46" r="3"/>
  <line class="step" x1="260" y1="46" x2="305" y2="90"/>
  <circle class="point" cx="305" cy="90" r="3"/>
  <line class="step" x1="305" y1="90" x2="340" y2="55"/>
  <circle class="point" cx="340" cy="55" r="3"/>

  <!-- Final position -->
  <circle class="point-end" cx="340" cy="55" r="5"/>
  <text class="step-label" x="340" y="45" text-anchor="middle">converged</text>

  <!-- Annotation: shallow gradient -->
  <line class="grad" x1="340" y1="63" x2="348" y2="57"/>
  <text class="detail" x="354" y="62">shallow gradient</text>
  <text class="detail" x="354" y="74">→ small step</text>

  <!-- Learning rate annotation -->
  <text class="label" x="40" y="250">gradients guide each step. steep = fast learning. shallow = fine-tuning near minimum.</text>
</svg>
