<svg xmlns="http://www.w3.org/2000/svg" viewBox="0 0 520 200" font-family="system-ui, -apple-system, sans-serif" font-size="13">
  <style>
    rect.step { fill: #eef1fa; stroke: #b0b8d8; stroke-width: 1.5; rx: 8; }
    rect.step-loss { fill: #ede8f8; stroke: #6a30d0; stroke-width: 1.5; rx: 8; }
    rect.step-update { fill: #dce8ff; stroke: #4080d0; stroke-width: 1.5; rx: 8; }
    text.title { fill: #1a1a2e; font-size: 11px; font-weight: 600; }
    text.detail { fill: #5a5a7a; font-size: 9px; }
    line.arrow { stroke: #4080d0; stroke-width: 1.5; }
    polygon.arrow { fill: #4080d0; }
    text.label { fill: #5a5a7a; font-size: 10px; font-style: italic; }
    path.loop { fill: none; stroke: #4080d0; stroke-width: 1.5; stroke-dasharray: 4,3; }
    text.count { fill: #2a60c0; font-size: 10px; font-weight: 600; }
  </style>

  <!-- Background -->
  <rect width="520" height="200" fill="#f8f9fc" rx="12"/>

  <!-- Step 1: Forward -->
  <rect class="step" x="16" y="50" width="110" height="50"/>
  <text class="title" x="71" y="70" text-anchor="middle">Forward pass</text>
  <text class="detail" x="71" y="84" text-anchor="middle">tokens → predictions</text>

  <!-- Arrow -->
  <line class="arrow" x1="126" y1="75" x2="148" y2="75"/>
  <polygon class="arrow" points="144,70 154,75 144,80"/>

  <!-- Step 2: Loss -->
  <rect class="step-loss" x="156" y="50" width="110" height="50"/>
  <text class="title" x="211" y="70" text-anchor="middle">Compute loss</text>
  <text class="detail" x="211" y="84" text-anchor="middle">how wrong?</text>

  <!-- Arrow -->
  <line class="arrow" x1="266" y1="75" x2="288" y2="75"/>
  <polygon class="arrow" points="284,70 294,75 284,80"/>

  <!-- Step 3: Backward -->
  <rect class="step" x="296" y="50" width="110" height="50"/>
  <text class="title" x="351" y="70" text-anchor="middle">Backward pass</text>
  <text class="detail" x="351" y="84" text-anchor="middle">compute gradients</text>

  <!-- Arrow -->
  <line class="arrow" x1="406" y1="75" x2="428" y2="75"/>
  <polygon class="arrow" points="424,70 434,75 424,80"/>

  <!-- Step 4: Update -->
  <rect class="step-update" x="436" y="50" width="70" height="50"/>
  <text class="title" x="471" y="70" text-anchor="middle">Update</text>
  <text class="detail" x="471" y="84" text-anchor="middle">nudge params</text>

  <!-- Loop arrow back -->
  <path class="loop" d="M 471,100 L 471,140 L 71,140 L 71,100"/>
  <polygon class="arrow" points="66,104 71,94 76,104"/>

  <!-- Repeat label -->
  <text class="count" x="271" y="156" text-anchor="middle">repeat ~20,000 times</text>

  <!-- Labels above -->
  <text class="label" x="71" y="40" text-anchor="middle">1</text>
  <text class="label" x="211" y="40" text-anchor="middle">2</text>
  <text class="label" x="351" y="40" text-anchor="middle">3</text>
  <text class="label" x="471" y="40" text-anchor="middle">4</text>
</svg>
