<svg xmlns="http://www.w3.org/2000/svg" viewBox="0 0 400 420" font-family="system-ui, -apple-system, sans-serif" font-size="13">
  <style>
    rect.layer { fill: #1a1a2e; stroke: #3a3a5e; stroke-width: 1.5; rx: 8; }
    rect.attn { fill: #162447; stroke: #5390d9; stroke-width: 1; rx: 6; }
    rect.mlp { fill: #2d1b3d; stroke: #7c3aed; stroke-width: 1; rx: 6; }
    rect.embed { fill: #0f3460; stroke: #5390d9; stroke-width: 1.5; rx: 8; }
    text.title { fill: #e0e0e0; font-size: 11px; font-weight: 600; }
    text.detail { fill: #8888aa; font-size: 10px; }
    text.label { fill: #6a6a8a; font-size: 10px; font-style: italic; }
    text.layer-num { fill: #6a6a8a; font-size: 10px; font-weight: 500; }
    line.arrow { stroke: #5390d9; stroke-width: 1.5; }
    line.skip { stroke: #3a5a8e; stroke-width: 1; stroke-dasharray: 3,3; }
    polygon.arrow { fill: #5390d9; }
    text.skip-label { fill: #5390d9; font-size: 9px; font-style: italic; }
    text.dots { fill: #6a6a8a; font-size: 16px; }
  </style>

  <!-- Input -->
  <rect class="embed" x="100" y="10" width="200" height="36"/>
  <text class="title" x="200" y="32" text-anchor="middle">Token embeddings</text>

  <!-- Arrow -->
  <line class="arrow" x1="200" y1="46" x2="200" y2="66"/>
  <polygon class="arrow" points="195,62 200,72 205,62"/>

  <!-- Layer 1 -->
  <text class="layer-num" x="68" y="100" text-anchor="end">layer 1</text>
  <rect class="layer" x="80" y="76" width="240" height="56"/>
  <rect class="attn" x="92" y="84" width="100" height="18"/>
  <text class="title" x="142" y="97" text-anchor="middle">Attention</text>
  <rect class="attn" x="92" y="84" width="100" height="18"/>
  <text class="title" x="142" y="97" text-anchor="middle">Attention</text>
  <text class="detail" x="142" y="123" text-anchor="middle">12 heads</text>
  <rect class="mlp" x="208" y="84" width="100" height="18"/>
  <text class="title" x="258" y="97" text-anchor="middle">MLP</text>
  <text class="detail" x="258" y="123" text-anchor="middle">4× expand</text>

  <!-- Residual skip for layer 1 -->
  <line class="skip" x1="78" y1="76" x2="78" y2="132"/>
  <line class="skip" x1="78" y1="132" x2="100" y2="132"/>
  <text class="skip-label" x="56" y="106" text-anchor="end">+ x</text>

  <!-- Arrow -->
  <line class="arrow" x1="200" y1="132" x2="200" y2="152"/>
  <polygon class="arrow" points="195,148 200,158 205,148"/>

  <!-- Layer 2 -->
  <text class="layer-num" x="68" y="186" text-anchor="end">layer 2</text>
  <rect class="layer" x="80" y="162" width="240" height="56"/>
  <rect class="attn" x="92" y="170" width="100" height="18"/>
  <text class="title" x="142" y="183" text-anchor="middle">Attention</text>
  <rect class="mlp" x="208" y="170" width="100" height="18"/>
  <text class="title" x="258" y="183" text-anchor="middle">MLP</text>
  <text class="detail" x="142" y="209" text-anchor="middle">12 heads</text>
  <text class="detail" x="258" y="209" text-anchor="middle">4× expand</text>

  <!-- Residual skip for layer 2 -->
  <line class="skip" x1="78" y1="162" x2="78" y2="218"/>
  <line class="skip" x1="78" y1="218" x2="100" y2="218"/>
  <text class="skip-label" x="56" y="192" text-anchor="end">+ x</text>

  <!-- Arrow -->
  <line class="arrow" x1="200" y1="218" x2="200" y2="238"/>
  <polygon class="arrow" points="195,234 200,244 205,234"/>

  <!-- Dots -->
  <text class="dots" x="200" y="264" text-anchor="middle">···</text>
  <text class="label" x="200" y="280" text-anchor="middle">layers 3–11</text>

  <!-- Arrow -->
  <line class="arrow" x1="200" y1="288" x2="200" y2="308"/>
  <polygon class="arrow" points="195,304 200,314 205,304"/>

  <!-- Layer 12 -->
  <text class="layer-num" x="68" y="342" text-anchor="end">layer 12</text>
  <rect class="layer" x="80" y="318" width="240" height="56"/>
  <rect class="attn" x="92" y="326" width="100" height="18"/>
  <text class="title" x="142" y="339" text-anchor="middle">Attention</text>
  <rect class="mlp" x="208" y="326" width="100" height="18"/>
  <text class="title" x="258" y="339" text-anchor="middle">MLP</text>
  <text class="detail" x="142" y="365" text-anchor="middle">12 heads</text>
  <text class="detail" x="258" y="365" text-anchor="middle">4× expand</text>

  <!-- Residual skip for layer 12 -->
  <line class="skip" x1="78" y1="318" x2="78" y2="374"/>
  <line class="skip" x1="78" y1="374" x2="100" y2="374"/>
  <text class="skip-label" x="56" y="348" text-anchor="end">+ x</text>

  <!-- Arrow -->
  <line class="arrow" x1="200" y1="374" x2="200" y2="394"/>
  <polygon class="arrow" points="195,390 200,400 205,390"/>

  <!-- Output -->
  <rect class="embed" x="100" y="402" width="200" height="14"/>
  <text class="detail" x="200" y="413" text-anchor="middle">→ next token probabilities</text>
</svg>
